<?xml version="1.0" encoding="UTF-8"?>
<svg width="35px" height="24px" viewBox="0 0 35 24" version="1.1" xmlns="http://www.w3.org/2000/svg" xmlns:xlink="http://www.w3.org/1999/xlink">
    <!-- Generator: Sketch 51.3 (57544) - http://www.bohemiancoding.com/sketch -->
    <title>Group</title>
    <desc>Created with Sketch.</desc>
    <defs></defs>
    <g id="Page-1" stroke="none" stroke-width="1" fill="none" fill-rule="evenodd">
        <g id="Module" transform="translate(-421.000000, -5733.000000)" fill-rule="nonzero">
            <g id="Group-59" transform="translate(200.000000, 5683.000000)">
                <g id="YouTube_Logo_2017" transform="translate(221.000000, 50.000000)">
                    <g id="Group">
                        <path d="M34.1106557,3.75529412 C33.7090164,2.28705882 32.5327869,1.12941176 31.0409836,0.734117647 C28.3155738,0 17.4139344,0 17.4139344,0 C17.4139344,0 6.51229508,0 3.78688525,0.705882353 C2.32377049,1.10117647 1.11885246,2.28705882 0.717213115,3.75529412 C0,6.43764706 0,12 0,12 C0,12 0,17.5905882 0.717213115,20.2447059 C1.11885246,21.7129412 2.29508197,22.8705882 3.78688525,23.2658824 C6.54098361,24 17.4139344,24 17.4139344,24 C17.4139344,24 28.3155738,24 31.0409836,23.2941176 C32.5327869,22.8988235 33.7090164,21.7411765 34.1106557,20.2729412 C34.8278689,17.5905882 34.8278689,12.0282353 34.8278689,12.0282353 C34.8278689,12.0282353 34.8565574,6.43764706 34.1106557,3.75529412 Z" id="Shape" fill="#FF0000"></path>
                        <polygon id="Shape" fill="#FFFFFF" points="13.942623 17.1388235 23.0081967 12 13.942623 6.86117647"></polygon>
                    </g>
                </g>
            </g>
        </g>
    </g>
</svg>