<?xml version="1.0" encoding="UTF-8"?>
<svg width="21px" height="21px" viewBox="0 0 21 21" version="1.1" xmlns="http://www.w3.org/2000/svg" xmlns:xlink="http://www.w3.org/1999/xlink">
    <!-- Generator: Sketch 52.2 (67145) - http://www.bohemiancoding.com/sketch -->
    <title>Shape Copy</title>
    <desc>Created with Sketch.</desc>
    <g id="Page-1" stroke="none" stroke-width="1" fill="none" fill-rule="evenodd">
        <g id="Module" transform="translate(-469.000000, -5467.000000)" fill="#1DB954" fill-rule="nonzero">
            <g id="Group-63" transform="translate(461.000000, 5459.000000)">
                <path d="M18.5,8 C12.7038306,8 8,12.7038306 8,18.5 C8,24.2961694 12.7038306,29 18.5,29 C24.2961694,29 29,24.2961694 29,18.5 C29,12.7038306 24.2961694,8 18.5,8 Z M22.7635081,23.4493952 C22.5856855,23.4493952 22.4756048,23.3943548 22.3104839,23.2969758 C19.6685484,21.7050403 16.5947581,21.6372984 13.5590726,22.2596774 C13.3939516,22.3020161 13.1780242,22.3697581 13.0552419,22.3697581 C12.6445565,22.3697581 12.3862903,22.04375 12.3862903,21.7008065 C12.3862903,21.2647177 12.6445565,21.0572581 12.9620968,20.9895161 C16.4296371,20.2231855 19.9733871,20.2909274 22.996371,22.0987903 C23.2546371,22.2639113 23.4070565,22.4120968 23.4070565,22.797379 C23.4070565,23.1826613 23.1064516,23.4493952 22.7635081,23.4493952 Z M23.9024194,20.6719758 C23.6822581,20.6719758 23.5340726,20.5745968 23.3816532,20.4941532 C20.7354839,18.927621 16.7895161,18.2967742 13.2796371,19.2493952 C13.0764113,19.3044355 12.9663306,19.3594758 12.7758065,19.3594758 C12.3227823,19.3594758 11.9544355,18.991129 11.9544355,18.5381048 C11.9544355,18.0850806 12.1745968,17.7844758 12.6106855,17.6616935 C13.7877016,17.3314516 14.990121,17.0858871 16.7514113,17.0858871 C19.4991935,17.0858871 22.1538306,17.7675403 24.2453629,19.0122984 C24.5883065,19.2155242 24.7237903,19.4780242 24.7237903,19.846371 C24.7195565,20.303629 24.3639113,20.6719758 23.9024194,20.6719758 Z M25.2149194,17.4457661 C24.9947581,17.4457661 24.8592742,17.3907258 24.66875,17.2806452 C21.6542339,15.48125 16.2645161,15.0493952 12.7758065,16.0231855 C12.6233871,16.0655242 12.4328629,16.1332661 12.2296371,16.1332661 C11.6707661,16.1332661 11.2431452,15.6971774 11.2431452,15.1340726 C11.2431452,14.5582661 11.5987903,14.2322581 11.9798387,14.1221774 C13.4701613,13.6860887 15.1383065,13.478629 16.9546371,13.478629 C20.0453629,13.478629 23.2842742,14.1221774 25.6510081,15.5024194 C25.98125,15.6929435 26.1971774,15.9554435 26.1971774,16.4592742 C26.1971774,17.0350806 25.7314516,17.4457661 25.2149194,17.4457661 Z" id="Shape-Copy"></path>
            </g>
        </g>
    </g>
</svg>