<?xml version="1.0" encoding="UTF-8" standalone="no"?>
<svg
   xmlns:dc="http://purl.org/dc/elements/1.1/"
   xmlns:cc="http://creativecommons.org/ns#"
   xmlns:rdf="http://www.w3.org/1999/02/22-rdf-syntax-ns#"
   xmlns:svg="http://www.w3.org/2000/svg"
   xmlns="http://www.w3.org/2000/svg"
   viewBox="0 0 449.50668 113.38667"
   height="113.38667"
   width="449.50668"
   xml:space="preserve"
   id="svg2"
   version="1.1"><metadata
     id="metadata8"><rdf:RDF><cc:Work
         rdf:about=""><dc:format>image/svg+xml</dc:format><dc:type
           rdf:resource="http://purl.org/dc/dcmitype/StillImage" /></cc:Work></rdf:RDF></metadata><defs
     id="defs6" /><g
     transform="matrix(1.3333333,0,0,-1.3333333,0,113.38667)"
     id="g10"><g
       transform="scale(0.1)"
       id="g12"><path
         id="path14"
         style="fill:#ffffff;fill-opacity:1;fill-rule:nonzero;stroke:none"
         d="m 1081.1,451.25 c 0,-66.719 39.04,-115.371 91.94,-115.371 52.09,0 90.27,47.668 90.27,112.773 0,64.239 -39.04,111.953 -91.97,111.953 -52.04,0 -90.24,-45.976 -90.24,-109.355 z m 190.02,186.543 h 152.76 v -85.859 h -19.13 c -10.4,0 -19.96,-14.735 -19.96,-31.289 V 285.527 c 0,-83.222 -5.14,-109.277 -26.02,-136.23 -34.7,-44.219 -103.32,-71.9728 -177.04,-71.9728 -68.56,0 -132.76,22.5391 -168.35,58.1058 -16.415,17.363 -26.036,39.062 -32.9,73.769 h 125.76 c 13.9,-32.109 38.2,-49.453 70.33,-49.453 48.56,0 80.68,38.184 80.68,95.449 v 34.668 c -37.34,-30.371 -66.87,-40.761 -110.18,-40.761 -107.66,0 -183.996,84.179 -183.996,202.148 0,117.168 73.786,199.59 178.756,199.59 47.71,0 81.56,-13.836 129.29,-52.012 v 38.965" /><path
         id="path16"
         style="fill:#ffffff;fill-opacity:1;fill-rule:nonzero;stroke:none"
         d="m 1446.04,303.781 h 21.67 c 16.48,0 23.43,3.465 23.43,24.254 v 199.582 c 0,13.887 -6.95,24.317 -23.43,24.317 h -65.09 v 85.859 h 211.75 V 328.035 c 0,-26.031 2.57,-24.254 25.1,-24.254 h 23.47 v -91.164 h -216.9 v 91.164" /><path
         id="path18"
         style="fill:#ffffff;fill-opacity:1;fill-rule:nonzero;stroke:none"
         d="m 1785.65,451.25 c 0,-66.719 39.1,-115.371 92.05,-115.371 52.03,0 90.2,47.668 90.2,112.773 0,64.239 -39.01,111.953 -91.95,111.953 -52.06,0 -90.3,-45.976 -90.3,-109.355 z m 190.08,186.543 h 152.7 v -85.859 h -19.05 c -10.44,0 -19.97,-14.735 -19.97,-31.289 V 285.527 c 0,-83.222 -5.19,-109.277 -26.06,-136.23 -34.71,-44.219 -103.27,-71.9728 -176.97,-71.9728 -68.58,0 -132.78,22.5391 -168.35,58.1058 -16.49,17.363 -26.07,39.062 -32.98,73.769 h 125.82 c 13.88,-32.109 38.12,-49.453 70.26,-49.453 48.6,0 80.67,38.184 80.67,95.449 v 34.668 c -37.28,-30.371 -66.77,-40.761 -110.12,-40.761 -107.62,0 -183.98,84.179 -183.98,202.148 0,117.168 73.74,199.59 178.74,199.59 47.71,0 81.53,-13.836 129.29,-52.012 v 38.965" /><path
         id="path20"
         style="fill:#ffffff;fill-opacity:1;fill-rule:nonzero;stroke:none"
         d="m 2177.29,303.781 c 14.8,0 18.23,5.184 18.23,24.254 v 192.61 c 0,20.859 -6.11,31.289 -23.42,31.289 h -21.66 v 85.859 h 173.44 v -33.828 c 46.01,36.515 70.39,46.074 110.28,46.074 46.83,0 75.43,-14.812 114.5,-58.203 52.07,48.644 78.97,61.621 128.44,61.621 86.77,0 146.61,-58.105 146.61,-142.324 V 328.035 c 0,-9.539 7.86,-24.254 26.92,-24.254 l 23.46,-0.195 v -90.969 h -225.58 v 91.164 h 26.05 c 12.99,0 19,10.477 19,32.977 V 469.57 c 0,49.395 -20.8,80.645 -53.75,80.645 -36.46,0 -67.65,-37.324 -67.65,-80.645 V 328.035 c 0,-23.394 0.86,-24.254 19.06,-24.254 h 28.63 v -91.164 h -223.01 v 91.164 h 29.5 c 15.58,0 19.06,6.024 19.06,32.977 V 469.57 c 0,47.637 -25.1,83.301 -59.84,83.301 -35.58,0 -61.68,-37.441 -61.68,-88.516 V 333.281 c 0,-21.66 5.27,-29.5 19.14,-29.5 h 26.87 v -91.164 h -219.45 v 91.164 h 26.85" /><path
         id="path22"
         style="fill:#ffffff;fill-opacity:1;fill-rule:nonzero;stroke:none"
         d="m 2841.62,303.586 h 65.11 c 16.47,0 23.39,3.465 23.39,24.277 v 192.606 c 0,13.84 -6.92,31.289 -23.39,31.289 h -21.7 v 86.035 h 168.34 v -309.93 c 0,-26.047 2.55,-24.277 25.17,-24.277 h 23.38 v -90.969 h -260.3 v 90.969" /><path
         id="path24"
         style="fill:#ffffff;fill-opacity:1;fill-rule:nonzero;stroke:none"
         d="m 3104.05,637.793 h 55.57 v 127.414 h 126.65 V 637.793 h 78.97 v -86.035 h -76.35 v -206.57 c 0,-30.305 9.55,-41.602 29.54,-41.602 h 52.89 v -90.969 h -89.4 c -91.1,0 -122.3,28.516 -122.3,114.406 v 224.735 h -55.57 v 86.035" /><path
         id="path26"
         style="fill:#ffffff;fill-opacity:1;fill-rule:nonzero;stroke:none"
         d="M 449.363,496.602 H 287.02 c -20.915,20.976 -34.254,49.941 -35.719,82.226 18.34,1.719 71.289,6.172 118.511,6.192 50.122,-0.02 101.876,-4.024 115.376,-5.137 -1.211,-32.695 -14.653,-62.09 -35.825,-83.281 z m -8.472,-54.59 -17.329,-298.633 -55.425,28.125 -55.254,-28.047 -17.324,298.555 h 0.015 l -8.828,34.804 162.949,-0.039 -8.828,-34.765 z m -72.676,265 c 59.566,0 108.687,-46.426 116.109,-106.485 -16.953,1.368 -66.465,4.961 -114.512,4.981 -46.089,-0.02 -97.285,-4.18 -117.871,-6.035 7.012,60.586 56.348,107.539 116.274,107.539 z M 368.254,850.391 0,637.785 V 212.578 L 368.254,0 736.465,212.598 V 637.812 L 368.254,850.391" /></g></g></svg>