<?xml version="1.0" encoding="UTF-8"?>
<svg width="138px" height="27px" viewBox="0 0 138 27" version="1.1" xmlns="http://www.w3.org/2000/svg" xmlns:xlink="http://www.w3.org/1999/xlink">
    <!-- Generator: Sketch Beta 47 (45359) - http://www.bohemiancoding.com/sketch -->
    <title>Group 3</title>
    <desc>Created with Sketch Beta.</desc>
    <defs></defs>
    <g id="Page-1" stroke="none" stroke-width="1" fill="none" fill-rule="evenodd">
        <g id="black-only-on-white" transform="translate(-20.000000, -10.000000)" fill="#000000">
            <g id="Group-3" transform="translate(20.000000, 10.000000)">
                <path d="M89.556213,0 L135,0 L135,-4.4408921e-16 C136.656854,-5.16319496e-15 138,1.34314575 138,3 L138,24 L138,24 C138,25.6568542 136.656854,27 135,27 L89.556213,27 L89.556213,27 C87.8993588,27 86.556213,25.6568542 86.556213,24 L86.556213,3 L86.556213,3 C86.556213,1.34314575 87.8993588,-1.39730022e-16 89.556213,-4.4408921e-16 L89.556213,0 Z M95.5384615,17.0584053 L95.5384615,19.1975622 L100.283827,19.1975622 L100.283827,17.0584053 L99.6928943,17.0584053 C99.4421958,17.0584053 99.3168465,16.9304215 99.3168465,16.7110208 L99.3168465,15.0289487 L101.268714,15.0289487 C104.277096,15.0289487 105.870822,13.6394109 105.870822,11.0431691 C105.870822,8.44692737 104.259189,7.00253936 101.358249,7.00253936 L95.5384615,7.00253936 L95.5384615,9.08684611 L96.0577656,9.08684611 C96.3800923,9.08684611 96.4696275,9.19654647 96.4696275,9.59878111 L96.4696275,16.6013205 C96.4696275,16.9487049 96.3621853,17.0584053 96.0577656,17.0584053 L95.5384615,17.0584053 Z M106.409974,19.1792788 L111.137432,19.1792788 L111.137432,17.0218385 L110.600221,17.0218385 C110.206266,17.0218385 110.134638,16.9669883 110.134638,16.6561706 L110.134638,14.3524632 L111.907434,14.3524632 C113.160927,14.3524632 113.80558,14.9740985 113.93093,16.3087862 C114.074186,17.6617572 114.074186,17.6617572 114.092093,17.7714576 C114.163721,18.2468258 114.306977,18.6490604 114.450234,18.8318944 C114.665118,19.0695785 114.933724,19.1609954 115.399307,19.1609954 L117.763036,19.1609954 L117.763036,17.0218385 L117.028847,17.0218385 C116.849777,17.0218385 116.706521,16.8024378 116.688613,16.4916201 C116.545357,14.2244794 116.151402,13.6759777 114.450234,13.4017268 C115.542563,13.0360589 115.86489,12.8897918 116.169309,12.5972575 C116.706521,12.1036059 117.046754,11.2442864 117.046754,10.384967 C117.046754,9.30624683 116.52745,8.30066023 115.614191,7.66074149 C114.933724,7.18537329 114.056279,6.96597257 112.784879,6.96597257 L106.409974,6.96597257 L106.409974,9.06856272 L106.911371,9.06856272 C107.215791,9.06856272 107.305326,9.19654647 107.305326,9.6170645 L107.305326,16.4367699 C107.305326,16.8390046 107.179976,17.0218385 106.911371,17.0218385 L106.409974,17.0218385 L106.409974,19.1792788 Z M123.996625,6.54545455 C122.402899,6.54545455 120.934522,7.1488065 119.878007,8.20924327 C118.731956,9.3793804 118.158931,10.9883189 118.158931,13.0360589 C118.158931,15.0106653 118.857305,16.8938547 120.003356,18.0639919 C120.988243,19.0512951 122.474527,19.6363636 124.032439,19.6363636 C127.488498,19.6363636 129.83432,17.0218385 129.83432,13.1640427 C129.83432,9.25139665 127.452684,6.54545455 123.996625,6.54545455 Z M99.2989395,9.08684611 L100.910573,9.08684611 C102.37895,9.08684611 103.184767,9.76333164 103.184767,11.0066023 C103.184767,12.3047232 102.468485,12.8349416 100.677781,12.8349416 L99.2989395,12.8349416 L99.2989395,9.08684611 Z M110.134638,9.06856272 L112.426738,9.06856272 C113.554882,9.06856272 114.342792,9.74504825 114.342792,10.7140681 C114.342792,11.7013713 113.536975,12.3595734 112.301389,12.3595734 L110.134638,12.3595734 L110.134638,9.06856272 Z M124.08616,8.79431183 C124.623372,8.79431183 125.124769,8.95886237 125.53663,9.26968004 C126.449889,9.94616557 127.094543,11.6099543 127.094543,13.2188928 C127.094543,15.5774505 125.733608,17.4423565 124.014532,17.4423565 C122.27755,17.4423565 120.898708,15.4860335 120.898708,13.0177755 C120.898708,10.5495175 122.223828,8.79431183 124.08616,8.79431183 Z" id="Pro"></path>
                <g id="gigmit" transform="translate(41.000000, 14.181818) scale(-1, 1) rotate(-180.000000) translate(-41.000000, -14.181818) translate(0.000000, 2.181818)" fill-rule="nonzero">
                    <g>
                        <path d="M4.65772915,13.0005285 C4.65772915,10.7154381 5.97593431,9.04913277 7.7621293,9.04913277 C9.52097425,9.04913277 10.8101411,10.6817366 10.8101411,12.9115484 C10.8101411,15.1117002 9.49193591,16.7458795 7.70472795,16.7458795 C5.94757129,16.7458795 4.65772915,15.1712258 4.65772915,13.0005285 Z M11.0738496,19.3895277 L16.2318675,19.3895277 L16.2318675,16.4489023 L15.5859335,16.4489023 C15.2347723,16.4489023 14.9119741,15.9442364 14.9119741,15.3772706 L14.9119741,7.32460338 C14.9119741,4.47429387 14.7384194,3.58192389 14.0333958,2.65879789 C12.8617329,1.14432051 10.5447442,0.193767526 8.05555151,0.193767526 C5.74058877,0.193767526 3.57284361,0.965719789 2.37112943,2.18386047 C1.81686874,2.77853404 1.49201085,3.52171332 1.26024446,4.71040973 L5.50659385,4.71040973 C5.97593431,3.61069345 6.79643598,3.01667061 7.88132152,3.01667061 C9.52097425,3.01667061 10.6055221,4.32445243 10.6055221,6.28574841 L10.6055221,7.47310909 C9.34471833,6.43291839 8.34762309,6.07706638 6.88523925,6.07706638 C3.25004542,6.07706638 0.672522147,8.96015264 0.672522147,13.0005285 C0.672522147,17.0134706 3.16394339,19.8363805 6.70830802,19.8363805 C8.31926007,19.8363805 9.46222227,19.3625049 11.0738496,18.054997 L11.0738496,19.3895277 L11.0738496,19.3895277 Z" id="path14"></path>
                        <path d="M16.980111,7.94979323 L17.7118094,7.94979323 C18.2682649,7.94979323 18.5029351,8.06846765 18.5029351,8.78047992 L18.5029351,15.6160579 C18.5029351,16.0916803 18.2682649,16.4489023 17.7118094,16.4489023 L15.514013,16.4489023 L15.514013,19.3895277 L22.6638578,19.3895277 L22.6638578,8.78047992 C22.6638578,7.88893192 22.7506351,7.94979323 23.5113719,7.94979323 L24.3038482,7.94979323 L24.3038482,4.82747442 L16.980111,4.82747442 L16.980111,7.94979323" id="path16"></path>
                        <path d="M28.4472128,13.0005285 C28.4472128,10.7154381 29.7674439,9.04913277 31.5553272,9.04913277 C33.3121462,9.04913277 34.6009753,10.6817366 34.6009753,12.9115484 C34.6009753,15.1117002 33.2837831,16.7458795 31.4962375,16.7458795 C29.7384056,16.7458795 28.4472128,15.1712258 28.4472128,13.0005285 Z M34.8653592,19.3895277 L40.0213512,19.3895277 L40.0213512,16.4489023 L39.3781184,16.4489023 C39.0256066,16.4489023 38.7038213,15.9442364 38.7038213,15.3772706 L38.7038213,7.32460338 C38.7038213,4.47429387 38.5285784,3.58192389 37.8238924,2.65879789 C36.6518919,1.14432051 34.3369291,0.193767526 31.8484117,0.193767526 C29.5327737,0.193767526 27.3650285,0.965719789 26.1639896,2.18386047 C25.6071965,2.77853404 25.283723,3.52171332 25.0504034,4.71040973 L29.2987787,4.71040973 C29.7674439,3.61069345 30.5859196,3.01667061 31.6711428,3.01667061 C33.3121462,3.01667061 34.3950058,4.32445243 34.3950058,6.28574841 L34.3950058,7.47310909 C33.1362279,6.43291839 32.1404833,6.07706638 30.6767488,6.07706638 C27.0429056,6.07706638 24.464572,8.96015264 24.464572,13.0005285 C24.464572,17.0134706 26.95444,19.8363805 30.4998176,19.8363805 C32.1107696,19.8363805 33.2527189,19.3625049 34.8653592,18.054997 L34.8653592,19.3895277 L34.8653592,19.3895277 Z" id="path18"></path>
                        <path d="M41.6711336,7.94979323 C42.170863,7.94979323 42.2866786,8.12734249 42.2866786,8.78047992 L42.2866786,15.3772706 C42.2866786,16.0916803 42.0803714,16.4489023 41.4958906,16.4489023 L40.7645299,16.4489023 L40.7645299,19.3895277 L46.6208183,19.3895277 L46.6208183,18.2309366 C48.174369,19.481556 48.9975719,19.8089467 50.3444778,19.8089467 C51.9257162,19.8089467 52.8914095,19.3016436 54.2106276,17.8155247 C55.9687973,19.481556 56.8770892,19.9260114 58.5474686,19.9260114 C61.4773011,19.9260114 63.4978286,17.9359459 63.4978286,15.0514896 L63.4978286,8.78047992 C63.4978286,8.45377421 63.7632255,7.94979323 64.4067959,7.94979323 L65.1989346,7.94311459 L65.1989346,4.82747442 L57.5821129,4.82747442 L57.5821129,7.94979323 L58.4617042,7.94979323 C58.900318,7.94979323 59.1032487,8.30862495 59.1032487,9.07923805 L59.1032487,13.6279789 C59.1032487,15.3197315 58.4009263,16.3900275 57.288353,16.3900275 C56.0572629,16.3900275 55.0041169,15.1117002 55.0041169,13.6279789 L55.0041169,8.78047992 C55.0041169,7.97924778 55.0331552,7.94979323 55.6476873,7.94979323 L56.6143936,7.94979323 L56.6143936,4.82747442 L49.0843493,4.82747442 L49.0843493,7.94979323 L50.0804316,7.94979323 C50.6064981,7.94979323 50.724002,8.15611205 50.724002,9.07923805 L50.724002,13.6279789 C50.724002,15.2595209 49.8764879,16.4809941 48.7034744,16.4809941 C47.5020979,16.4809941 46.6208183,15.1986596 46.6208183,13.4493679 L46.6208183,8.96015264 C46.6208183,8.21830909 46.7987625,7.94979323 47.26709,7.94979323 L48.174369,7.94979323 L48.174369,4.82747442 L40.7645299,4.82747442 L40.7645299,7.94979323 L41.6711336,7.94979323" id="path20"></path>
                        <path d="M64.1025688,7.94311459 L66.3010405,7.94311459 C66.8571583,7.94311459 67.0908156,8.06178901 67.0908156,8.77458901 L67.0908156,15.3712427 C67.0908156,15.8452554 66.8571583,16.4428744 66.3010405,16.4428744 L65.5683292,16.4428744 L65.5683292,19.3895277 L71.2524136,19.3895277 L71.2524136,8.77458901 C71.2524136,7.88249302 71.3385156,7.94311459 72.1022912,7.94311459 L72.8917286,7.94311459 L72.8917286,4.82747442 L64.1025688,4.82747442 L64.1025688,7.94311459" id="path22"></path>
                        <path d="M72.9636492,19.3895277 L74.839998,19.3895277 L74.839998,23.7533899 L79.1163987,23.7533899 L79.1163987,19.3895277 L81.7828603,19.3895277 L81.7828603,16.4428744 L79.2048643,16.4428744 L79.2048643,9.3679611 C79.2048643,8.33003087 79.5273249,7.94311459 80.2022972,7.94311459 L81.9881546,7.94311459 L81.9881546,4.82747442 L78.9695188,4.82747442 C75.8934817,4.82747442 74.839998,5.80413235 74.839998,8.74581945 L74.839998,16.4428744 L72.9636492,16.4428744 L72.9636492,19.3895277" id="path24"></path>
                    </g>
                </g>
            </g>
        </g>
    </g>
</svg>