<?xml version="1.0" encoding="UTF-8"?>
<svg width="65px" height="64px" viewBox="0 0 65 64" version="1.1" xmlns="http://www.w3.org/2000/svg" xmlns:xlink="http://www.w3.org/1999/xlink">
    <!-- Generator: Sketch 52 (66869) - http://www.bohemiancoding.com/sketch -->
    <title>Group 2</title>
    <desc>Created with Sketch.</desc>
    <g id="Page-1" stroke="none" stroke-width="1" fill="none" fill-rule="evenodd">
        <g id="Sample-Page-Final" transform="translate(-269.000000, -1612.000000)">
            <g id="Group-40" transform="translate(199.000000, 1220.000000)">
                <g id="Group-37" transform="translate(1.000000, 372.000000)">
                    <g id="Group-22">
                        <g id="Group-2" transform="translate(69.000000, 20.000000)">
                            <path d="M5.33870463,10 L64.5904559,10 C64.6600017,37.9109579 64.6773882,53.5872507 64.6426153,57.0288785 C64.6078424,60.4705062 62.6236221,62.5319508 58.6899544,63.2132122 L5.33870463,63.2132946 L5.33870463,10 Z M34.7015801,51.75 L45.0570192,56.8487804 L43.0793063,46.0493902 L51.4570325,38.4012196 L39.8792996,36.8256098 L34.7015801,27 L29.5238606,36.8256098 L17.9461277,38.4012196 L26.3238539,46.0493902 L24.346141,56.8487804 L34.7015801,51.75 Z" id="Combined-Shape" fill="#F8E71C"></path>
                            <g id="Page-1">
                                <g id="Group-3">
                                    <path d="M11.9450483,4.32744143 C11.740309,4.32744143 11.5769532,4.32744143 11.4137649,4.32744143 C8.28671518,4.32744143 5.15949795,4.32379437 2.03244826,4.32934425 C0.711360242,4.33172276 -3.35088908e-05,5.02291969 -3.35088908e-05,6.27592225 C0.000134035563,24.205022 0.000134035563,42.1341217 -3.35088908e-05,60.0633801 C-3.35088908e-05,61.3000501 0.737497177,61.9991754 2.04953779,61.9991754 C19.7093934,61.9996512 37.369249,62.0010783 55.0289371,61.998224 C59.5524698,61.9975898 62.9663556,58.7504389 62.9663556,54.4613391 C62.9663556,38.3687714 62.9650152,22.2762036 62.9623345,6.18363581 C62.9623345,6.02617801 62.9581459,5.86491458 62.9236318,5.71189668 C62.7217407,4.81662302 62.0207347,4.33013708 60.917622,4.32870997 C57.7904048,4.32506292 54.6633551,4.32775857 51.5363054,4.32649003 C51.374625,4.32649003 51.2129446,4.31396317 51.0189281,4.30587621 C51.0189281,3.45690435 51.0356826,2.65249003 51.0098807,1.84918568 C51.0006658,1.56804501 50.9411875,1.26438772 50.8103353,1.01559488 C50.4202918,0.274131969 49.5922871,-0.0685329923 48.7775184,0.124602558 C47.9285707,0.325666496 47.3865644,0.986418414 47.3838837,1.83031611 C47.3812029,2.64598875 47.3832135,3.46150281 47.3832135,4.29763069 L33.3135004,4.29763069 C33.3135004,3.4497688 33.3166838,2.63155908 33.3124952,1.81350793 C33.3094794,1.19985064 33.027167,0.711779028 32.4990668,0.372602558 C31.9083051,-0.0066915601 31.2682853,-0.0433207161 30.6361401,0.276986189 C30.008351,0.594914578 29.6712515,1.11073555 29.657848,1.78575857 C29.6410935,2.6157023 29.6538269,3.44628031 29.6538269,4.29525217 L15.5790875,4.29525217 C15.5790875,3.45975857 15.5956744,2.65550281 15.5700401,1.85235703 C15.5611603,1.57121637 15.5026873,1.26755908 15.3725052,1.01829054 C14.9858126,0.278096164 14.1536193,-0.0682158568 13.3413638,0.123334015 C12.492081,0.323605115 11.9485668,0.984198465 11.9457185,1.82730332 C11.9428702,2.64313453 11.9450483,3.45896573 11.9450483,4.32744143" id="Fill-1"></path>
                                </g>
                                <g id="Group-6" fill="#000000">
                                    <path d="M3.6871843,7.78620102 L3.6871843,15.5994696 L59.2720674,15.5994696 L59.2720674,7.80078926 L51.020168,7.80078926 C51.020168,8.62074322 51.0246917,9.41136215 51.0191627,10.2018225 C51.0121258,11.1854184 50.2070747,11.9517765 49.1961115,11.9457509 C48.1858184,11.9397253 47.3888095,11.1681345 47.3846209,10.1878685 C47.3817726,9.50095294 47.3854586,8.81387877 47.3829454,8.1268046 C47.3824428,8.01390435 47.3653532,7.90100409 47.3566409,7.7966665 L33.3541132,7.7966665 C33.3368561,7.84661535 33.3212745,7.87087621 33.3212745,7.89529565 C33.3179236,8.66149514 33.3199341,9.42769463 33.3132324,10.1938941 C33.30452,11.166866 32.4927672,11.9414696 31.4861601,11.9446409 C30.4820662,11.9478123 29.6696431,11.1768558 29.6562396,10.1981754 C29.648365,9.61702455 29.6550667,9.03555652 29.6550667,8.45424706 L29.6550667,7.79539795 L15.5793221,7.79539795 C15.5793221,8.64833402 15.588537,9.47764348 15.5763063,10.3067944 C15.5662536,10.9991013 15.0557457,11.6240169 14.3463625,11.8504517 C13.6195546,12.0824363 12.7746279,11.8827995 12.3668247,11.2875361 C12.1444932,10.9627893 11.9938708,10.546866 11.9637128,10.1613877 C11.9027266,9.37822148 11.945618,8.58776113 11.945618,7.78620102 L3.6871843,7.78620102 Z M59.3084054,19.1191985 L3.68802203,19.1191985 L3.68802203,58.5537637 L4.12883148,58.5537355 C21.047638,58.5537355 37.9662769,58.5543698 54.8849159,58.5496128 C55.2732839,58.5494542 55.6717046,58.5309018 56.048177,58.449398 C58.0635693,58.0130194 59.3072517,56.4907688 59.3074193,54.4815565 C59.3089272,42.8422061 59.308257,31.2030143 59.308257,19.5636639 L59.3084054,19.1191985 Z M11.9451153,4.32752072 C11.9451153,3.45888645 11.9427697,2.64305524 11.9457855,1.82722404 C11.9486338,0.984119182 12.4919804,0.323525831 13.3414308,0.123254731 C14.1535188,-0.0682951407 14.9858796,0.27801688 15.3725722,1.01821125 C15.5027543,1.2674798 15.5610597,1.57113708 15.5701071,1.85227775 C15.5957415,2.65542353 15.5791545,3.45983785 15.5791545,4.29533146 L29.6537264,4.29533146 C29.6537264,3.44620102 29.6411606,2.61578159 29.6577475,1.78583785 C29.6713186,1.11081483 30.008418,0.594993862 30.6360395,0.276906905 C31.2683523,-0.0432414322 31.9083721,-0.00677084399 32.4989663,0.372681841 C33.0270664,0.711699744 33.3093788,1.19977136 33.3125622,1.81342864 C33.3165832,2.63163836 33.3135674,3.44968951 33.3135674,4.29755141 L47.3832805,4.29755141 C47.3832805,3.4615821 47.38127,2.64590946 47.3837831,1.8303954 C47.3866314,0.98633913 47.9286377,0.32574578 48.7775854,0.124681841 C49.5923541,-0.0684537084 50.4203588,0.274052685 50.8102348,1.0155156 C50.9412545,1.26446701 51.0007328,1.5681243 51.0097802,1.84910639 C51.0357496,2.65241074 51.0188276,3.45682506 51.0188276,4.3059555 C51.2130116,4.31404246 51.3745245,4.32656931 51.5362049,4.32656931 C54.6632546,4.32767928 57.7904718,4.3251422 60.9175215,4.32878926 C62.0206342,4.3300578 62.7218077,4.8167023 62.9235312,5.71197596 C62.9580454,5.86499386 62.9624015,6.02625729 62.9624015,6.18371509 C62.9650823,22.2762829 62.9664226,38.3688506 62.9664226,54.4614184 C62.9664226,58.7505182 59.5525368,61.9975105 55.0290041,61.9981448 C37.369316,62.0011575 19.7094604,61.9995719 2.04960481,61.9990962 C0.737564195,61.9990962 3.35088908e-05,61.3001294 3.35088908e-05,60.0633008 C3.35088908e-05,42.134201 3.35088908e-05,24.2051013 3.35088908e-05,6.27584297 C3.35088908e-05,5.02284041 0.711259715,4.33164348 2.03251528,4.32942353 C5.15956496,4.32371509 8.28661465,4.32752072 11.4138319,4.32752072 C11.5770202,4.32736215 11.7402085,4.32752072 11.9451153,4.32752072 Z" id="Fill-4"></path>
                                </g>
                                <path d="M20.5458432,36.6562346 C20.5387652,36.6836127 20.5315187,36.7108335 20.5244406,36.7382116 C20.647969,36.8220767 20.7706547,36.9070432 20.8951941,36.9896495 C22.5180832,38.0687242 24.1440057,39.1433932 25.7628502,40.2275029 C26.5958658,40.7852923 26.8243848,41.4536956 26.5099184,42.359533 C26.2203937,43.1931488 25.9217686,44.0239325 25.6287048,44.856447 C25.1708243,46.1565919 24.7144605,47.4570516 24.2284364,48.8399602 C24.4183633,48.7250981 24.5334654,48.6612158 24.6421636,48.5889943 C26.5053683,47.3511581 28.3680675,46.1123779 30.2305981,44.8735976 C31.1365848,44.2711221 31.8470832,44.2681326 32.7424529,44.8633702 C34.5936924,46.0941258 36.4451004,47.3251961 38.2968455,48.5556371 C38.4196997,48.6374567 38.5444077,48.7169161 38.7422553,48.845782 C38.6802383,48.642177 38.6477131,48.5192903 38.605582,48.3992358 C37.912273,46.4225056 37.2171103,44.4467196 36.5238013,42.4699894 C36.1535534,41.4146739 36.3682533,40.7963065 37.3290104,40.1573269 C38.9288117,39.0933574 40.5302981,38.0315907 42.1302679,36.9677785 C42.2475608,36.8897352 42.3572702,36.8017791 42.5551177,36.6562346 L41.9856741,36.6562346 C40.0206806,36.6562346 38.0553502,36.6578081 36.0903568,36.6556052 C34.9160794,36.6543465 34.3334909,36.261455 33.9713321,35.2319442 C33.4465474,33.7407819 32.9242906,32.2486756 32.3995059,30.7575133 C32.1133516,29.9445097 31.8239954,29.1326075 31.5034622,28.2281862 C31.4186945,28.4377702 31.3664519,28.5532617 31.3244894,28.6719002 C30.5627595,30.8339832 29.8015352,32.9963809 29.0418276,35.1589359 C28.645627,36.2863156 28.0975859,36.6556052 26.8092176,36.6560773 C25.293173,36.6567067 23.7772968,36.6562346 22.2614207,36.6562346 L20.5458432,36.6562346 Z M22.6441394,42.3573301 C20.6828535,41.0535662 18.7513964,39.7693132 16.8196023,38.4852174 C15.7447543,37.770712 14.6656931,37.0615563 13.5967434,36.3396557 C13.0170198,35.9483377 12.7438419,35.4113179 12.827767,34.7383517 C12.9116921,34.064284 13.3087354,33.5911464 13.978451,33.359062 C14.2844911,33.2530112 14.6360328,33.225161 14.9670146,33.224217 C18.4497379,33.2150909 21.9326297,33.2141469 25.4153531,33.2259478 C25.7480201,33.2272065 25.9010401,33.1479045 26.0083901,32.8395075 C27.2327192,29.3167016 28.4752489,25.7994027 29.7122173,22.2805304 C29.9997198,21.4626491 30.6559534,20.9942319 31.5122254,21.0000536 C32.3470949,21.0055607 32.989341,21.4717751 33.2719563,22.2756527 C34.5089247,25.794525 35.7502747,29.3121385 36.9766261,32.8341578 C37.0809426,33.1343728 37.2246939,33.228308 37.5656185,33.2270492 C41.0624979,33.2133601 44.5592087,33.2190246 48.0560881,33.2182379 C48.6784484,33.2180805 49.2483976,33.3275929 49.6961667,33.7849959 C50.346502,34.4496229 50.3522318,35.4538012 49.6781346,36.0967144 C49.5124752,36.2545318 49.3190093,36.3898489 49.1253748,36.5187148 C46.3369717,38.3753904 43.5504222,40.2344261 40.7505594,42.0758392 C40.4364301,42.2825911 40.3590775,42.441982 40.4861448,42.7966385 C41.6508163,46.0483383 42.7881868,49.3086921 43.9380282,52.564955 C44.1898035,53.2782016 44.1505373,53.9319717 43.5527816,54.492908 C42.8894699,55.115209 41.9309037,55.1705946 41.0983936,54.618627 C38.2146056,52.7064085 35.3341882,50.7893122 32.4524226,48.8742615 C32.1438545,48.6693978 31.8339383,48.4659502 31.4997546,48.2451946 C31.3642611,48.3315772 31.2257341,48.4168584 31.0905776,48.5065453 C28.0257946,50.5430667 24.9626968,52.5817909 21.8962285,54.6161095 C20.9836694,55.2212598 19.927359,55.1018347 19.2716309,54.3223456 C18.8312769,53.7988575 18.8231878,53.2146341 19.0368766,52.6082249 C20.1673376,49.4010539 21.2977987,46.1937254 22.4277542,42.9862397 C22.4976917,42.7882992 22.5645959,42.5894146 22.6441394,42.3573301 Z" id="Fill-7" fill="#000000"></path>
                            </g>
                        </g>
                    </g>
                </g>
            </g>
        </g>
    </g>
</svg>