<?xml version="1.0" encoding="UTF-8"?>
<svg width="50px" height="59px" viewBox="0 0 50 59" version="1.1" xmlns="http://www.w3.org/2000/svg" xmlns:xlink="http://www.w3.org/1999/xlink">
    <!-- Generator: Sketch 52 (66869) - http://www.bohemiancoding.com/sketch -->
    <title>Group 4</title>
    <desc>Created with Sketch.</desc>
    <defs>
        <polygon id="path-1" points="0 0 47.2585925 0 47.2585925 57 0 57"></polygon>
    </defs>
    <g id="Page-1" stroke="none" stroke-width="1" fill="none" fill-rule="evenodd">
        <g id="Sample-Page-Final" transform="translate(-723.000000, -1617.000000)">
            <g id="Group-40" transform="translate(199.000000, 1220.000000)">
                <g id="Group-39" transform="translate(446.000000, 372.000000)">
                    <g id="Group-26">
                        <g id="Group-4" transform="translate(78.000000, 25.000000)">
                            <path d="M3.75920622,58.5 L42.4253273,58.5" id="Line-2" stroke="#C8C8C8" stroke-linecap="round" stroke-linejoin="round"></path>
                            <path d="M5.22608246,57.0135538 C7.05552392,49.7788579 7.95574037,44.7119143 7.92673181,41.8127228 C7.89772325,38.9135314 7.88321897,35.0577573 7.88321897,30.2454006 L28.0639033,15.5473234 C26.9620536,13.7541461 26.9620536,12.4205534 28.0639033,11.5465455 C29.165753,10.6725376 30.2019768,10.6725376 31.1725747,11.5465455 L35.3227009,3.02098333 L49.3702148,12.3063214 L42.2576489,18.7066363 C43.1621453,19.7227701 43.1621453,20.6468099 42.2576489,21.4787557 C41.3531525,22.3107014 40.258436,22.7266743 38.9734995,22.7266743 L31.1725747,45.1506893 C25.7541562,46.3328581 21.4142854,47.8346995 18.1529624,49.6562135 C14.8916394,51.4777275 10.5826794,53.9301742 5.22608246,57.0135538 Z" id="Path-8" fill="#F8E71C"></path>
                            <g id="Page-1">
                                <mask id="mask-2" fill="white">
                                    <use xlink:href="#path-1"></use>
                                </mask>
                                <g id="Clip-2"></g>
                                <path d="M19.2734112,32.5937656 C19.964648,32.6014405 20.5252096,32.1348866 20.5377579,31.5412926 C20.5500898,30.9537577 20.0161392,30.4613514 19.3707685,30.4653908 C18.7158785,30.4694302 18.2152457,30.9052846 18.2033465,31.4811051 C18.1916636,32.0585414 18.7003014,32.5875045 19.2734112,32.5937656 M26.5498947,10.6721917 C26.3988828,10.8434635 26.1457538,11.0032229 26.1489991,11.1583369 C26.1531097,11.3635399 26.3034726,11.6372112 26.4849899,11.7573842 C29.9647556,14.0618781 33.4583677,16.3481945 36.9498163,18.6371366 C37.0525823,18.7045951 37.1702764,18.8203247 37.2693645,18.8106301 C37.4794399,18.790029 37.7587471,18.7556938 37.8651911,18.6248164 C37.9673081,18.4989882 37.9246872,18.2348095 37.872547,18.0496018 C37.8429071,17.9439707 37.6722073,17.8670196 37.5549459,17.7902705 C34.0944353,15.518294 30.6332756,13.2473273 27.1697361,10.9799962 C27.0126664,10.8773947 26.8294183,10.8095323 26.5498947,10.6721917 M5.83659145,50.6685919 C5.85974085,50.6914147 5.88310659,50.7144394 5.90625599,50.7372622 C6.04060905,50.6597052 6.1753948,50.5825521 6.30931515,50.5043891 C12.0745972,47.1381315 18.0698588,44.2525658 24.7416454,42.7634305 C25.7693057,42.533991 26.4053733,41.8612242 26.7437439,40.944274 C29.2049361,34.2743698 31.6594214,27.6024459 34.1309984,20.9359753 C34.2575628,20.5946436 34.174701,20.4385197 33.8778694,20.2430114 C31.302012,18.5460475 28.7304816,16.8424186 26.1777736,15.115361 C25.8084649,14.8657243 25.5921154,14.9089462 25.2537447,15.1412133 C19.1849243,19.3048541 13.1119932,23.4634457 7.02499937,27.6038597 C5.88332294,28.3806418 5.45235469,29.3793905 5.60098682,30.6625149 C6.09945612,34.9663239 5.95796353,39.2654875 5.4069213,43.5541486 C5.1347536,45.6712131 4.77344989,47.7783809 4.43962258,49.9748201 C8.42391539,44.7433564 12.3714288,39.5601638 16.2996871,34.4024197 C16.0288175,34.0136247 15.7659528,33.6900665 15.5632333,33.3362126 C14.4498986,31.3932475 15.2529881,29.0536106 17.3840309,27.9914429 C19.4231251,26.9751227 22.1129987,27.7430181 23.1668373,29.6425593 C23.9681959,31.0874628 23.7579041,32.873698 22.6363482,34.1445022 C21.613015,35.3038181 19.6764704,35.8249044 18.0573106,35.3268429 C17.6300203,35.1953595 17.4392,35.2919018 17.1977539,35.6152581 C15.1564962,38.3461136 13.0940362,41.0632351 11.0378503,43.7843961 C9.30402524,46.0791953 7.57020017,48.3737926 5.83659145,50.6685919 M4.55320608,55.2701067 L47.1563214,55.2701067 L47.1563214,56.8218532 L46.45232,56.8218532 C31.8861557,56.8218532 17.3199914,56.8210453 2.7538271,56.8275084 C2.47711606,56.8277103 2.19153469,56.886686 1.92542478,56.9638391 C1.18096607,57.1797465 -0.0476828669,56.3886245 0.00142847468,55.6586998 C0.0418858354,55.0612683 0.16671951,54.462827 0.31621703,53.8787256 C1.88042408,47.7698981 2.7765438,41.5839175 2.73522104,35.2961432 C2.72526896,33.7847911 2.56149237,32.2738429 2.45418301,30.7635006 C2.29559881,28.5286869 3.12248669,26.7083185 5.05838221,25.3607652 C10.9813831,21.2381246 16.9074129,17.1189175 22.8403658,13.0085971 C23.1512601,12.7932956 23.2220064,12.6270731 23.0857062,12.2711994 C22.1454512,9.81785262 24.1817329,7.43499381 26.9642041,7.70341383 C27.105264,7.71714788 27.24892,7.70523157 27.3787298,7.70523157 C28.3605239,5.58695532 29.3382074,3.47655596 30.3169726,1.36676252 C30.8491924,0.219564854 31.8690641,-0.241535897 33.1617525,0.121406744 C33.5509653,0.23047131 33.9380146,0.404974617 34.2698947,0.623709664 C38.0966851,3.14613072 41.9137397,5.68188189 45.7312271,8.21702715 C46.4064539,8.6654037 46.9637703,9.2109285 47.1747111,9.98488298 C47.3756998,10.7216747 47.2285821,11.3675793 46.5910001,11.906843 C44.8816225,13.3527564 43.1934472,14.8204827 41.4890456,16.2716473 C41.2804847,16.4491802 41.0245432,16.578038 40.8071119,16.7184081 C40.9083635,17.1774892 41.0520196,17.6305111 41.1030781,18.0924197 C41.2861098,19.750605 39.8640444,21.4239383 38.0856513,21.5693577 C37.3422743,21.6301511 37.0114759,21.8753444 36.7650538,22.5541703 C34.4386474,28.965753 32.0698365,35.3638036 29.6930206,41.7592286 C28.9784181,43.6813906 27.5862089,45.0093527 25.4456468,45.5098379 C17.8078596,47.2954672 11.0932358,50.8273414 4.7044344,54.9875487 C4.64580367,55.0255194 4.59366344,55.0725787 4.53871066,55.1155986 C4.5436867,55.1671013 4.54844639,55.218806 4.55320608,55.2701067" id="Fill-1" fill="#000000" mask="url(#mask-2)"></path>
                            </g>
                        </g>
                    </g>
                </g>
            </g>
        </g>
    </g>
</svg>