<?xml version="1.0" encoding="UTF-8"?>
<svg width="67px" height="61px" viewBox="0 0 67 61" version="1.1" xmlns="http://www.w3.org/2000/svg" xmlns:xlink="http://www.w3.org/1999/xlink">
    <!-- Generator: Sketch 52 (66869) - http://www.bohemiancoding.com/sketch -->
    <title>Group 5</title>
    <desc>Created with Sketch.</desc>
    <defs>
        <polygon id="path-1" points="0 0 63.0797872 0 63.0797872 59 0 59"></polygon>
    </defs>
    <g id="Page-1" stroke="none" stroke-width="1" fill="none" fill-rule="evenodd">
        <g id="Sample-Page-Final" transform="translate(-489.000000, -1616.000000)">
            <g id="Group-40" transform="translate(199.000000, 1220.000000)">
                <g id="Group-38" transform="translate(224.000000, 372.000000)">
                    <g id="Group-28">
                        <g id="Group-5" transform="translate(66.000000, 24.000000)">
                            <g id="Page-1" transform="translate(3.207447, 2.000000)" fill="#F8E71C">
                                <path d="M31.3716043,33.8762718 C25.8301605,33.8762718 20.2885537,33.8776423 14.7471099,33.87414 C14.1422064,33.8736831 13.594517,33.9979398 13.2792695,34.5176553 C13.132893,34.7590116 13.0315052,35.0609735 13.0297122,35.3361349 C13.0109669,37.8736502 13.017487,40.41147 13.01928,42.9491376 C13.019932,43.8423844 13.6293996,44.4236191 14.5935612,44.4347352 C15.5306644,44.445699 16.4679306,44.4348875 17.4050338,44.437933 C20.2181365,44.4469172 22.2595838,46.3523378 22.2641479,48.9755841 C22.2674079,50.815374 22.2690379,52.6551639 22.2636588,54.4949539 C22.2571387,56.6502582 20.8008716,58.3796485 18.5579528,58.8740864 C18.166094,58.9604265 17.7504368,58.9820495 17.3457008,58.9828109 C13.2031472,58.9902724 9.06059356,58.9927088 4.91803994,58.9855519 C2.04527827,58.9805268 0.00236394584,57.0542445 0.00122292611,54.3684131 C0.00040791202,52.566692 -0.00122211616,50.7649709 0.00154893175,48.9632498 C0.00562400221,46.3736563 2.0641866,44.4505718 4.84403666,44.4380853 C5.69980146,44.4342784 6.55670727,44.4112848 7.41084204,44.444024 C8.44493192,44.4839201 9.14812608,43.7807129 9.13850891,42.8495495 C9.10264829,39.3606183 9.12432767,35.871078 9.12400166,32.3818422 C9.12400166,31.0383174 9.95124096,30.2576021 11.3947939,30.2568407 C17.1129328,30.2544043 22.8310717,30.2560793 28.5492105,30.2554702 C28.7120503,30.2554702 28.8757052,30.2577543 29.037567,30.2429836 C29.9215313,30.1619732 30.4618856,29.6057116 30.4622116,28.773984 C30.4633526,24.5488018 30.4630266,20.3236196 30.4625376,16.0984374 C30.4625376,15.1325553 29.8664363,14.5627412 28.8241963,14.5511683 C27.9006223,14.5409659 26.9770483,14.5437068 26.0534744,14.5502546 C25.2087938,14.5561934 24.411058,14.4014817 23.6726552,14.0043478 C22.2308953,13.2288098 21.3105814,12.0797405 21.2509223,10.5269895 C21.1658349,8.31047049 21.1581737,6.08511954 21.2690156,3.87027559 C21.3679584,1.89831072 23.3455086,0.186279741 25.455906,0.0455773826 C25.8616201,0.0184723827 26.2691271,0.00263575356 26.6758191,0.00217892772 C30.6146192,-0.000866577886 34.5534193,-0.000105201485 38.4920564,0.000808450196 C39.3576014,0.000960725476 40.1928278,0.122628674 40.9591041,0.532858279 C42.5782111,1.39930462 43.441474,2.69745139 43.4641314,4.44267837 C43.4884188,6.3330237 43.4802687,8.22382585 43.4667395,10.1143235 C43.4492982,12.5612349 41.4803871,14.454778 38.8606058,14.5383772 C37.8838929,14.5695936 36.904409,14.5688322 35.9273701,14.5434023 C34.7565209,14.5129472 34.1928571,15.3394974 34.1992142,16.141379 C34.2321408,20.3029102 34.2345858,24.4650504 34.1985622,28.6264293 C34.1909011,29.5221125 34.8005316,30.2694795 35.9681208,30.264759 C41.129279,30.2438973 46.2906003,30.252577 51.4517585,30.2626272 C51.82422,30.2632363 52.229771,30.2891231 52.5618077,30.4260185 C53.3585655,30.754324 53.794109,31.3497204 53.79362,32.190889 C53.79199,35.7308325 53.792805,39.2709282 53.792968,42.8108716 C53.792968,43.8729917 54.3866243,44.4265123 55.5178638,44.4389989 C56.7116965,44.4520946 57.9169393,44.3876821 59.0965907,44.5186389 C61.3527127,44.7686749 63.0260996,46.5708528 63.0565812,48.6941793 C63.0852697,50.6985789 63.0901597,52.7040443 63.0552771,54.7082915 C63.0142004,57.0708425 60.9069,58.9639288 58.2726114,58.9799177 C53.9536888,59.0062613 49.6342771,59.007175 45.3153544,58.9797654 C42.5447955,58.962406 40.5321997,57.0245508 40.5263316,54.4445507 C40.5220935,52.6175519 40.5219305,50.7904008 40.5263316,48.9632498 C40.5328517,46.3658903 42.5811451,44.4510287 45.3637663,44.4380853 C46.2873402,44.4338215 47.2110772,44.4417399 48.1344882,44.436258 C49.1729791,44.4301669 49.7804906,43.8595915 49.7806536,42.899039 C49.7811426,40.4248702 49.7519651,37.9502447 49.7961389,35.476685 C49.8121132,34.5825246 49.1415196,33.8642421 48.0776002,33.8677444 C42.5090979,33.8858652 36.9402696,33.8762718 31.3716043,33.8762718" id="Fill-1"></path>
                            </g>
                            <g id="Page-1">
                                <mask id="mask-2" fill="white">
                                    <use xlink:href="#path-1"></use>
                                </mask>
                                <g id="Clip-2"></g>
                                <path d="M31.3716043,33.8762718 C25.8301605,33.8762718 20.2885537,33.8776423 14.7471099,33.87414 C14.1422064,33.8736831 13.594517,33.9979398 13.2792695,34.5176553 C13.132893,34.7590116 13.0315052,35.0609735 13.0297122,35.3361349 C13.0109669,37.8736502 13.017487,40.41147 13.01928,42.9491376 C13.019932,43.8423844 13.6293996,44.4236191 14.5935612,44.4347352 C15.5306644,44.445699 16.4679306,44.4348875 17.4050338,44.437933 C20.2181365,44.4469172 22.2595838,46.3523378 22.2641479,48.9755841 C22.2674079,50.815374 22.2690379,52.6551639 22.2636588,54.4949539 C22.2571387,56.6502582 20.8008716,58.3796485 18.5579528,58.8740864 C18.166094,58.9604265 17.7504368,58.9820495 17.3457008,58.9828109 C13.2031472,58.9902724 9.06059356,58.9927088 4.91803994,58.9855519 C2.04527827,58.9805268 0.00236394584,57.0542445 0.00122292611,54.3684131 C0.00040791202,52.566692 -0.00122211616,50.7649709 0.00154893175,48.9632498 C0.00562400221,46.3736563 2.0641866,44.4505718 4.84403666,44.4380853 C5.69980146,44.4342784 6.55670727,44.4112848 7.41084204,44.444024 C8.44493192,44.4839201 9.14812608,43.7807129 9.13850891,42.8495495 C9.10264829,39.3606183 9.12432767,35.871078 9.12400166,32.3818422 C9.12400166,31.0383174 9.95124096,30.2576021 11.3947939,30.2568407 C17.1129328,30.2544043 22.8310717,30.2560793 28.5492105,30.2554702 C28.7120503,30.2554702 28.8757052,30.2577543 29.037567,30.2429836 C29.9215313,30.1619732 30.4618856,29.6057116 30.4622116,28.773984 C30.4633526,24.5488018 30.4630266,20.3236196 30.4625376,16.0984374 C30.4625376,15.1325553 29.8664363,14.5627412 28.8241963,14.5511683 C27.9006223,14.5409659 26.9770483,14.5437068 26.0534744,14.5502546 C25.2087938,14.5561934 24.411058,14.4014817 23.6726552,14.0043478 C22.2308953,13.2288098 21.3105814,12.0797405 21.2509223,10.5269895 C21.1658349,8.31047049 21.1581737,6.08511954 21.2690156,3.87027559 C21.3679584,1.89831072 23.3455086,0.186279741 25.455906,0.0455773826 C25.8616201,0.0184723827 26.2691271,0.00263575356 26.6758191,0.00217892772 C30.6146192,-0.000866577886 34.5534193,-0.000105201485 38.4920564,0.000808450196 C39.3576014,0.000960725476 40.1928278,0.122628674 40.9591041,0.532858279 C42.5782111,1.39930462 43.441474,2.69745139 43.4641314,4.44267837 C43.4884188,6.3330237 43.4802687,8.22382585 43.4667395,10.1143235 C43.4492982,12.5612349 41.4803871,14.454778 38.8606058,14.5383772 C37.8838929,14.5695936 36.904409,14.5688322 35.9273701,14.5434023 C34.7565209,14.5129472 34.1928571,15.3394974 34.1992142,16.141379 C34.2321408,20.3029102 34.2345858,24.4650504 34.1985622,28.6264293 C34.1909011,29.5221125 34.8005316,30.2694795 35.9681208,30.264759 C41.129279,30.2438973 46.2906003,30.252577 51.4517585,30.2626272 C51.82422,30.2632363 52.229771,30.2891231 52.5618077,30.4260185 C53.3585655,30.754324 53.794109,31.3497204 53.79362,32.190889 C53.79199,35.7308325 53.792805,39.2709282 53.792968,42.8108716 C53.792968,43.8729917 54.3866243,44.4265123 55.5178638,44.4389989 C56.7116965,44.4520946 57.9169393,44.3876821 59.0965907,44.5186389 C61.3527127,44.7686749 63.0260996,46.5708528 63.0565812,48.6941793 C63.0852697,50.6985789 63.0901597,52.7040443 63.0552771,54.7082915 C63.0142004,57.0708425 60.9069,58.9639288 58.2726114,58.9799177 C53.9536888,59.0062613 49.6342771,59.007175 45.3153544,58.9797654 C42.5447955,58.962406 40.5321997,57.0245508 40.5263316,54.4445507 C40.5220935,52.6175519 40.5219305,50.7904008 40.5263316,48.9632498 C40.5328517,46.3658903 42.5811451,44.4510287 45.3637663,44.4380853 C46.2873402,44.4338215 47.2110772,44.4417399 48.1344882,44.436258 C49.1729791,44.4301669 49.7804906,43.8595915 49.7806536,42.899039 C49.7811426,40.4248702 49.7519651,37.9502447 49.7961389,35.476685 C49.8121132,34.5825246 49.1415196,33.8642421 48.0776002,33.8677444 C42.5090979,33.8858652 36.9402696,33.8762718 31.3716043,33.8762718" id="Fill-1" fill="#000000" mask="url(#mask-2)"></path>
                            </g>
                        </g>
                    </g>
                </g>
            </g>
        </g>
    </g>
</svg>