<?xml version="1.0" encoding="UTF-8"?>
<svg width="38px" height="32px" viewBox="0 0 38 32" version="1.1" xmlns="http://www.w3.org/2000/svg" xmlns:xlink="http://www.w3.org/1999/xlink">
    <!-- Generator: Sketch 52.3 (67297) - http://www.bohemiancoding.com/sketch -->
    <title>„“</title>
    <desc>Created with Sketch.</desc>
    <g id="Page-1" stroke="none" stroke-width="1" fill="none" fill-rule="evenodd">
        <g id="Sample-Page-Final" transform="translate(-213.000000, -1845.000000)" fill="#000000">
            <g id="Group-40" transform="translate(199.000000, 1220.000000)">
                <g id="Presse" transform="translate(1.000000, 589.000000)">
                    <g id="Group-24" transform="translate(13.000000, 36.000000)">
                        <path d="M0.738335195,26.4908742 C3.56872589,25.5474107 5.55670859,24.2838623 6.70234292,22.7001913 C7.84797725,21.1165204 8.42078582,18.5388818 8.42078582,14.9671983 L0.485623003,14.9671983 L0.485623003,0.360433604 L15.1429301,0.360433604 L15.1429301,12.3389915 C15.109235,16.2476263 14.7048995,19.2801422 13.9299116,21.4366304 C12.6494968,24.772448 10.6615141,27.316392 7.96590388,29.0685386 C6.38223289,30.0793924 3.97306742,31.0565364 0.738335195,32 L0.738335195,26.4908742 Z M23.3813476,26.4908742 C26.7171652,25.5474107 28.9578575,23.778443 30.1034919,21.1839182 C30.7436993,19.7013326 31.0637982,17.6291133 31.0637982,14.9671983 L23.1286354,14.9671983 L23.1286354,0.360433604 L37.7859425,0.360433604 L37.7859425,12.3389915 C37.651162,16.5171873 37.2468265,19.6339398 36.572924,21.6893426 C35.7642409,24.0480015 34.1890173,26.1791863 31.847206,28.082961 C29.5053946,29.9867357 26.68347,31.2924023 23.3813476,32 L23.3813476,26.4908742 Z" id="„“"></path>
                    </g>
                </g>
            </g>
        </g>
    </g>
</svg>